<?xml version="1.0" encoding="UTF-8"?> <svg xmlns="http://www.w3.org/2000/svg" width="96" height="128" viewBox="0 0 96 128" fill="none"> <path d="M47.7209 127.69C75.4908 127.69 95.3523 112.417 95.2919 91.2876C95.3523 75.8935 85.5724 64.9062 67.4013 62.6122V61.6463C81.2259 59.1712 90.7642 49.3913 90.7038 35.5064C90.7642 16.0071 73.6797 0.673291 48.0831 0.673291C22.728 0.673291 3.65128 15.5241 3.28906 36.8949H28.3423C28.6442 27.4773 37.277 21.38 47.9624 21.38C58.527 21.38 65.5902 27.7791 65.5298 37.076C65.5902 46.7955 57.3196 53.3757 45.4268 53.3757H33.8963V72.5732H45.4268C59.4325 72.5732 68.1861 79.576 68.1257 89.5369C68.1861 99.3771 59.7344 106.138 47.7812 106.138C36.2507 106.138 27.6179 100.102 27.1349 91.0462H0.813921C1.23651 112.658 20.5547 127.69 47.7209 127.69Z" fill="#0E55CB"></path> </svg> 