<?xml version="1.0" encoding="UTF-8"?> <svg xmlns="http://www.w3.org/2000/svg" width="239" height="239" viewBox="0 0 239 239" fill="none"> <path d="M41.3549 68.4335C41.4224 68.3033 41.5281 68.2154 41.6719 68.1698C41.8157 68.1242 41.9527 68.1351 42.0829 68.2026L44.9416 69.6846C45.0718 69.7521 45.1597 69.8577 45.2053 70.0015C45.2509 70.1453 45.24 70.2823 45.1725 70.4125L43.1935 74.2301L51.3258 78.4457C51.456 78.5132 51.5439 78.6189 51.5895 78.7627C51.6351 78.9065 51.6242 79.0435 51.5567 79.1737L49.6605 82.8314C49.593 82.9616 49.4874 83.0495 49.3436 83.0951C49.1998 83.1408 49.0628 83.1298 48.9326 83.0623L40.8003 78.8466L38.8213 82.6642C38.7538 82.7944 38.6482 82.8823 38.5044 82.9279C38.3606 82.9735 38.2236 82.9626 38.0934 82.8951L35.2347 81.4131C35.1045 81.3456 35.0166 81.24 34.971 81.0962C34.9254 80.9524 34.9363 80.8154 35.0038 80.6852L41.3549 68.4335Z" fill="black"></path> <path d="M52.097 54.9382C52.1877 54.8229 52.308 54.7564 52.4578 54.7386C52.6076 54.7207 52.7401 54.7572 52.8553 54.8479L63.0066 62.8403C63.1218 62.9311 63.1883 63.0513 63.2062 63.2011C63.224 63.3509 63.1875 63.4834 63.0968 63.5987L60.5481 66.8358C60.4574 66.951 60.3371 67.0175 60.1873 67.0353C60.0376 67.0532 59.905 67.0167 59.7898 66.926L56.4427 64.2907L53.9683 67.4335L57.3154 70.0688C57.4306 70.1595 57.4971 70.2798 57.515 70.4296C57.5328 70.5794 57.4963 70.7119 57.4056 70.8271L54.8569 74.0642C54.7662 74.1794 54.6512 74.2501 54.5119 74.2761C54.3621 74.294 54.2243 74.2534 54.0986 74.1544L43.9474 66.162C43.8321 66.0713 43.7656 65.951 43.7478 65.8012C43.73 65.6514 43.7664 65.5189 43.8571 65.4037L46.4058 62.1666C46.4965 62.0514 46.6168 61.9848 46.7666 61.967C46.9164 61.9492 47.0489 61.9856 47.1641 62.0764L50.3855 64.6127L52.8599 61.4699L49.6386 58.9336C49.5233 58.8428 49.4568 58.7226 49.439 58.5728C49.4212 58.423 49.4576 58.2905 49.5483 58.1752L52.097 54.9382Z" fill="black"></path> <path d="M71.8152 51.2527C71.926 51.1566 72.0566 51.1138 72.2071 51.1244C72.3575 51.135 72.4809 51.1956 72.577 51.3064L74.4261 53.4355C74.5223 53.5463 74.565 53.6769 74.5545 53.8274C74.5439 53.9778 74.4832 54.1012 74.3725 54.1973L64.829 62.4854C64.7182 62.5815 64.5876 62.6243 64.4371 62.6137C64.2867 62.6031 64.1633 62.5425 64.0672 62.4317L55.5956 52.6768C55.4994 52.5661 55.4566 52.4355 55.4672 52.285C55.4778 52.1345 55.5385 52.0112 55.6492 51.915L65.0417 43.7581C65.1524 43.662 65.283 43.6192 65.4335 43.6298C65.584 43.6404 65.7073 43.701 65.8035 43.8118L67.6525 45.9409C67.7487 46.0517 67.7915 46.1823 67.7809 46.3328C67.7703 46.4832 67.7096 46.6066 67.5989 46.7027L61.7248 51.8041L62.551 52.7554L67.5946 48.3753C67.7053 48.2792 67.8359 48.2364 67.9864 48.247C68.1368 48.2576 68.2602 48.3182 68.3563 48.429L70.0612 50.392C70.1573 50.5028 70.2001 50.6334 70.1895 50.7838C70.1789 50.9343 70.1183 51.0576 70.0075 51.1538L64.964 55.5339L65.7901 56.4852L71.8152 51.2527Z" fill="black"></path> <path d="M97.076 28.9835C97.2144 28.9349 97.3516 28.9433 97.4876 29.0086C97.6235 29.0739 97.7158 29.1757 97.7644 29.3141L98.7715 32.1824C98.8201 32.3208 98.8118 32.458 98.7465 32.594C98.6811 32.73 98.5793 32.8222 98.4409 32.8708L91.0248 35.4748L91.4488 36.6825L97.6384 34.5092C97.7768 34.4606 97.9139 34.469 98.0499 34.5343C98.1859 34.5996 98.2782 34.7014 98.3268 34.8398L99.3273 37.6893C99.3759 37.8277 99.3675 37.9649 99.3022 38.1008C99.2369 38.2368 99.1351 38.3291 98.9967 38.3777L92.8071 40.551L94.119 44.2873C94.1676 44.4257 94.1593 44.5629 94.0939 44.6989C94.0286 44.8349 93.9268 44.9271 93.7884 44.9757L89.7124 46.4069C89.574 46.4555 89.4368 46.4471 89.3008 46.3818C89.1648 46.3165 89.0726 46.2147 89.024 46.0763L84.7437 33.8859C84.6951 33.7475 84.7035 33.6103 84.7688 33.4743C84.8341 33.3384 84.9359 33.2461 85.0743 33.1975L97.076 28.9835Z" fill="white"></path> <path d="M109.8 41.4992C107.585 41.8316 105.753 41.6145 104.303 40.8478C102.866 40.0792 101.994 38.673 101.688 36.6292L100.554 29.0738C100.532 28.9287 100.566 28.7955 100.656 28.6742C100.745 28.5529 100.863 28.4814 101.008 28.4596L105.141 27.8393C105.287 27.8175 105.42 27.8515 105.541 27.9411C105.662 28.0308 105.734 28.1481 105.756 28.2932L106.937 36.165C107.018 36.7057 107.258 37.0943 107.658 37.331C108.071 37.5656 108.587 37.6365 109.207 37.5435C109.826 37.4505 110.292 37.2322 110.605 36.8887C110.931 36.5432 111.053 36.1002 110.972 35.5596L109.79 27.6877C109.769 27.5427 109.803 27.4095 109.892 27.2882C109.982 27.1669 110.099 27.0953 110.244 27.0735L114.378 26.4532C114.523 26.4315 114.656 26.4654 114.778 26.5551C114.899 26.6447 114.97 26.7621 114.992 26.9071L116.126 34.4625C116.433 36.5063 116.006 38.1074 114.845 39.2659C113.697 40.4223 112.015 41.1668 109.8 41.4992Z" fill="white"></path> <path d="M131.988 27.2193C132.134 27.2251 132.258 27.2834 132.361 27.3942C132.463 27.5051 132.511 27.6338 132.506 27.7803L132.378 30.9978C132.372 31.1443 132.313 31.2688 132.203 31.3711C132.092 31.4734 131.963 31.5217 131.817 31.5159L127.52 31.3449L127.156 40.4977C127.15 40.6442 127.092 40.7687 126.981 40.871C126.87 40.9734 126.741 41.0216 126.595 41.0158L122.478 40.852C122.331 40.8461 122.207 40.7878 122.105 40.677C122.002 40.5662 121.954 40.4375 121.96 40.2909L122.324 31.1382L118.027 30.9672C117.881 30.9614 117.756 30.9031 117.654 30.7922C117.552 30.6814 117.504 30.5527 117.509 30.4062L117.637 27.1887C117.643 27.0422 117.702 26.9177 117.812 26.8154C117.923 26.713 118.052 26.6648 118.198 26.6706L131.988 27.2193Z" fill="white"></path> <path d="M139.064 43.5378C136.882 43.0305 135.258 42.1533 134.193 40.9063C133.141 39.6623 132.849 38.0338 133.317 36.0208L135.047 28.5794C135.081 28.4365 135.161 28.3252 135.289 28.2455C135.417 28.1658 135.553 28.1425 135.696 28.1757L139.767 29.1225C139.91 29.1557 140.021 29.2364 140.101 29.3644C140.181 29.4925 140.204 29.6279 140.171 29.7708L138.368 37.5239C138.244 38.0564 138.324 38.5062 138.608 38.8735C138.905 39.2437 139.359 39.4999 139.97 39.6418C140.58 39.7837 141.094 39.7526 141.511 39.5485C141.941 39.3473 142.218 38.9805 142.342 38.448L144.145 30.6949C144.178 30.5521 144.259 30.4408 144.387 30.361C144.515 30.2813 144.65 30.258 144.793 30.2913L148.864 31.2381C149.007 31.2713 149.118 31.3519 149.198 31.48C149.278 31.608 149.301 31.7435 149.268 31.8863L147.537 39.3278C147.069 41.3407 146.082 42.6717 144.576 43.3208C143.083 43.9729 141.245 44.0452 139.064 43.5378Z" fill="white"></path> <path d="M160.481 51.0937C160.484 51.1533 160.472 51.2136 160.445 51.2745C160.396 51.3842 160.31 51.4628 160.187 51.5103C160.082 51.5511 159.974 51.5471 159.864 51.4985L155.714 49.6588C155.543 49.5832 155.403 49.4703 155.295 49.3201C155.199 49.1754 155.15 49.0225 155.148 48.8614L155.144 44.5279L153.608 43.8471L152.02 47.4309C151.96 47.565 151.86 47.6592 151.719 47.7135C151.579 47.7677 151.441 47.7652 151.307 47.7058L147.358 45.9553C147.223 45.8958 147.129 45.7957 147.075 45.655C147.021 45.5143 147.023 45.3768 147.083 45.2428L152.318 33.431C152.377 33.2969 152.477 33.2027 152.618 33.1484C152.759 33.0941 152.896 33.0967 153.03 33.1561L160.143 36.3086C161.24 36.7949 162.119 37.3957 162.779 38.1112C163.451 38.8321 163.858 39.625 164 40.4899C164.141 41.3549 164.012 42.2384 163.612 43.1404C162.878 44.7982 161.706 45.7152 160.096 45.8915L160.481 51.0937ZM157.393 41.4775C157.661 41.5964 157.906 41.6029 158.128 41.4971C158.355 41.379 158.528 41.186 158.647 40.9178C158.766 40.6496 158.796 40.3856 158.736 40.1257C158.693 39.8591 158.532 39.6636 158.252 39.5393L155.966 38.5263L155.107 40.4645L157.393 41.4775Z" fill="white"></path> <path d="M173.177 56.5381C173.298 56.6217 173.372 56.7376 173.399 56.8861C173.426 57.0345 173.397 57.169 173.314 57.2895L171.708 59.6075C171.624 59.7281 171.508 59.8018 171.36 59.8287C171.211 59.8557 171.077 59.8274 170.956 59.7438L160.567 52.5451C160.446 52.4615 160.372 52.3456 160.345 52.1971C160.318 52.0487 160.347 51.9142 160.43 51.7937L167.788 41.1737C167.872 41.0532 167.988 40.9794 168.136 40.9525C168.285 40.9256 168.419 40.9539 168.54 41.0374L178.765 48.1223C178.886 48.2058 178.959 48.3218 178.986 48.4702C179.013 48.6186 178.985 48.7531 178.902 48.8737L177.295 51.1916C177.212 51.3122 177.096 51.3859 176.948 51.4129C176.799 51.4398 176.665 51.4115 176.544 51.328L170.149 46.8971L169.431 47.9328L174.922 51.7372C175.043 51.8207 175.117 51.9367 175.144 52.0851C175.17 52.2335 175.142 52.368 175.059 52.4886L173.578 54.6257C173.494 54.7463 173.378 54.82 173.23 54.847C173.081 54.8739 172.947 54.8456 172.826 54.7621L167.336 50.9577L166.618 51.9933L173.177 56.5381Z" fill="white"></path> <path d="M194.534 80.6324C192.836 81.763 191.205 82.032 189.641 81.4395C188.085 80.858 186.682 79.6295 185.433 77.7539C184.185 75.8783 183.588 74.1047 183.645 72.4333C183.709 70.7729 184.601 69.37 186.321 68.2246L188.285 66.9166C189.417 66.1629 190.532 65.8048 191.631 65.8424C192.747 65.8837 193.794 66.2523 194.77 66.9481C195.745 67.6438 196.629 68.5855 197.419 69.773C198.21 70.9605 198.735 72.1331 198.993 73.2907C199.258 74.4594 199.2 75.5632 198.819 76.6021C198.437 77.6411 197.686 78.5337 196.565 79.2801L194.534 80.6324ZM188.964 72.9522C188.509 73.2552 188.259 73.6378 188.215 74.1C188.177 74.5733 188.332 75.0708 188.68 75.5924C189.027 76.114 189.422 76.4433 189.866 76.5804C190.328 76.7212 190.787 76.6401 191.242 76.3371L193.872 74.5858C194.327 74.2828 194.573 73.8947 194.611 73.4213C194.666 72.9517 194.521 72.4561 194.173 71.9345C193.826 71.4129 193.427 71.078 192.976 70.9298C192.532 70.7927 192.083 70.8757 191.628 71.1786L188.964 72.9522Z" fill="black"></path> <path d="M207.728 91.6504C207.785 91.7856 207.785 91.923 207.728 92.0627C207.671 92.2024 207.575 92.3008 207.44 92.3577L204.638 93.538C204.503 93.5949 204.366 93.5949 204.226 93.538C204.086 93.4811 203.988 93.3851 203.931 93.25L200.88 86.0065L199.7 86.5034L202.247 92.5489C202.304 92.684 202.304 92.8215 202.247 92.9612C202.19 93.1009 202.094 93.1992 201.959 93.2562L199.176 94.4286C199.041 94.4856 198.903 94.4856 198.763 94.4287C198.624 94.3718 198.525 94.2758 198.468 94.1406L195.922 88.0952L192.272 89.6326C192.137 89.6896 192 89.6896 191.86 89.6327C191.72 89.5758 191.622 89.4798 191.565 89.3446L189.888 85.3635C189.831 85.2283 189.831 85.0909 189.888 84.9512C189.945 84.8115 190.041 84.7131 190.176 84.6562L202.082 79.6402C202.218 79.5832 202.355 79.5832 202.495 79.6401C202.634 79.697 202.733 79.793 202.79 79.9282L207.728 91.6504Z" fill="black"></path> <path d="M211.471 119.431C211.519 121.684 211.07 123.494 210.126 124.861C209.182 126.241 207.69 126.953 205.65 126.996L203.611 127.04C201.531 127.084 199.997 126.443 199.009 125.117C198.034 123.804 197.522 122.008 197.474 119.729L197.338 113.35C197.335 113.203 197.386 113.076 197.49 112.967C197.594 112.858 197.72 112.802 197.866 112.799L210.784 112.524C210.93 112.521 211.058 112.571 211.167 112.676C211.276 112.78 211.332 112.906 211.335 113.052L211.471 119.431ZM201.375 119.746C201.388 120.372 201.546 120.862 201.846 121.216C202.161 121.583 202.592 121.76 203.138 121.749L205.897 121.69C206.444 121.678 206.86 121.483 207.145 121.103C207.444 120.737 207.587 120.24 207.574 119.614L207.535 117.794L201.336 117.926L201.375 119.746Z" fill="black"></path> <path d="M199.549 137.846L198.946 141.416C198.921 141.56 198.847 141.676 198.725 141.764C198.602 141.851 198.468 141.883 198.323 141.858L195.345 141.355C195.201 141.33 195.085 141.257 194.997 141.134C194.91 141.011 194.879 140.877 194.903 140.732L197.016 128.23C197.041 128.085 197.114 127.969 197.237 127.882C197.36 127.794 197.494 127.763 197.639 127.787L200.616 128.291C200.761 128.315 200.877 128.389 200.964 128.512C201.052 128.635 201.083 128.768 201.059 128.913L200.449 132.522L206.168 133.489L206.778 129.88C206.802 129.735 206.876 129.619 206.999 129.532C207.122 129.444 207.256 129.413 207.4 129.437L210.378 129.941C210.523 129.965 210.639 130.039 210.726 130.162C210.813 130.285 210.845 130.418 210.82 130.563L208.707 143.066C208.683 143.21 208.609 143.326 208.486 143.414C208.363 143.501 208.229 143.533 208.085 143.508L205.107 143.005C204.962 142.98 204.846 142.907 204.759 142.784C204.672 142.661 204.64 142.527 204.665 142.382L205.268 138.813L199.549 137.846Z" fill="black"></path> <path d="M197.114 158.319C197.063 158.457 196.969 158.557 196.832 158.62C196.695 158.683 196.558 158.688 196.42 158.637L194.433 157.898C192.534 157.191 191.363 156.016 190.922 154.373C190.489 152.746 190.667 150.871 191.457 148.746C192.248 146.622 193.341 145.079 194.737 144.119C196.14 143.176 197.804 143.062 199.729 143.778L201.941 144.601C203.215 145.075 204.155 145.781 204.76 146.717C205.377 147.658 205.688 148.734 205.693 149.945C205.698 151.156 205.451 152.43 204.954 153.767C204.359 155.367 203.606 156.587 202.695 157.429C201.784 158.271 200.912 158.8 200.077 159.016C199.238 159.245 198.613 159.282 198.2 159.129C198.088 159.087 198.004 159.006 197.949 158.886C197.902 158.783 197.9 158.675 197.941 158.563L199.517 154.327C199.61 154.077 199.747 153.921 199.926 153.86C200.557 153.654 201.015 153.17 201.298 152.407C201.512 151.832 201.56 151.302 201.442 150.817C201.319 150.345 201.051 150.032 200.639 149.878L197.452 148.693C196.952 148.507 196.489 148.548 196.062 148.816C195.648 149.089 195.331 149.519 195.113 150.106C194.824 150.881 194.744 151.498 194.872 151.958C195.007 152.435 195.254 152.748 195.612 152.895L196.044 151.733C196.095 151.595 196.189 151.495 196.326 151.432C196.463 151.37 196.601 151.364 196.738 151.415L198.819 152.189C198.956 152.24 199.057 152.334 199.119 152.471C199.182 152.609 199.188 152.746 199.137 152.883L197.114 158.319Z" fill="black"></path> <path d="M186.987 166.179L185.111 169.275C185.035 169.401 184.924 169.481 184.777 169.517C184.631 169.553 184.495 169.533 184.369 169.457L181.787 167.892C181.661 167.816 181.581 167.704 181.545 167.558C181.509 167.411 181.529 167.275 181.605 167.15L188.177 156.306C188.253 156.181 188.364 156.1 188.511 156.064C188.657 156.028 188.793 156.048 188.919 156.124L191.501 157.69C191.627 157.766 191.708 157.877 191.743 158.023C191.779 158.17 191.759 158.306 191.683 158.431L189.786 161.561L194.746 164.568L196.643 161.438C196.719 161.312 196.831 161.231 196.977 161.195C197.124 161.16 197.26 161.18 197.385 161.256L199.968 162.821C200.093 162.897 200.174 163.008 200.21 163.155C200.246 163.301 200.226 163.437 200.15 163.563L193.578 174.406C193.501 174.532 193.39 174.613 193.244 174.648C193.097 174.684 192.961 174.664 192.836 174.588L190.253 173.023C190.128 172.947 190.047 172.836 190.011 172.689C189.975 172.543 189.995 172.407 190.071 172.281L191.948 169.186L186.987 166.179Z" fill="black"></path> <path d="M181.51 187.814C181.412 187.923 181.287 187.981 181.137 187.989C180.986 187.997 180.856 187.952 180.747 187.853L178.356 185.697C178.247 185.599 178.188 185.475 178.18 185.324C178.173 185.174 178.218 185.044 178.316 184.935L181.195 181.741L174.391 175.608C174.282 175.51 174.224 175.385 174.216 175.235C174.208 175.084 174.253 174.954 174.352 174.845L177.11 171.785C177.208 171.676 177.333 171.618 177.483 171.61C177.634 171.602 177.764 171.647 177.873 171.745L184.677 177.879L187.556 174.685C187.654 174.576 187.778 174.517 187.929 174.509C188.08 174.502 188.209 174.547 188.318 174.645L190.71 176.801C190.819 176.899 190.877 177.024 190.885 177.174C190.893 177.325 190.848 177.455 190.75 177.564L181.51 187.814Z" fill="black"></path> <path d="M167.266 181.781C167.13 181.315 167.232 180.953 167.572 180.695L170.585 178.412C170.681 178.34 170.79 178.307 170.913 178.314C171.033 178.34 171.129 178.401 171.202 178.497L171.258 178.605L175.502 191.424C175.564 191.594 175.577 191.777 175.541 191.971C175.504 192.166 175.385 192.34 175.183 192.493L170.752 195.851C170.55 196.004 170.35 196.072 170.153 196.054C169.956 196.037 169.783 195.975 169.636 195.869L158.442 188.317L158.354 188.233C158.281 188.137 158.254 188.024 158.272 187.893C158.288 187.781 158.343 187.689 158.439 187.617L161.451 185.334C161.792 185.076 162.168 185.075 162.579 185.332L163.824 186.146L167.713 183.198L167.266 181.781ZM170.636 191.096L169.256 186.923L166.992 188.638L170.636 191.096Z" fill="black"></path> <path d="M147.751 196.941C147.619 197.006 147.482 197.015 147.339 196.966C147.196 196.918 147.092 196.828 147.027 196.697L145.687 193.99C145.622 193.859 145.614 193.722 145.662 193.579C145.71 193.436 145.8 193.332 145.931 193.267L156.398 188.084C156.53 188.019 156.667 188.01 156.81 188.059C156.953 188.107 157.057 188.197 157.122 188.328L162.855 199.907C162.92 200.038 162.929 200.175 162.88 200.318C162.832 200.461 162.742 200.565 162.611 200.63L158.739 202.547C158.608 202.612 158.471 202.621 158.328 202.572C158.185 202.524 158.081 202.434 158.016 202.303L153.862 193.915L147.751 196.941Z" fill="black"></path> <path d="M115.043 198.779C114.983 198.704 114.949 198.62 114.942 198.527C114.932 198.407 114.969 198.297 115.055 198.196C115.128 198.11 115.224 198.062 115.344 198.052L120.486 197.628C120.792 197.603 121.04 197.689 121.23 197.887L125.052 201.887L124.717 197.821C124.705 197.674 124.747 197.544 124.845 197.429C124.942 197.314 125.064 197.25 125.21 197.238L129.316 196.899C129.463 196.887 129.593 196.93 129.708 197.027C129.823 197.125 129.887 197.247 129.899 197.393L130.961 210.269C130.974 210.415 130.931 210.546 130.833 210.661C130.736 210.776 130.614 210.84 130.468 210.852L126.362 211.191C126.215 211.203 126.085 211.16 125.97 211.062C125.855 210.965 125.791 210.843 125.779 210.697L125.47 206.95L122.646 211.156C122.466 211.398 122.229 211.532 121.937 211.556L117.133 211.952C117.013 211.962 116.91 211.924 116.823 211.837C116.723 211.765 116.668 211.669 116.658 211.55C116.65 211.443 116.675 211.348 116.735 211.262L120.984 205.112L115.043 198.779Z" fill="black"></path> <path d="M111.251 197.768C111.472 197.336 111.794 197.142 112.218 197.187L115.977 197.589C116.096 197.602 116.198 197.653 116.282 197.742C116.352 197.843 116.38 197.954 116.368 198.073L116.335 198.19L110.643 210.435C110.571 210.602 110.455 210.744 110.295 210.861C110.135 210.978 109.929 211.023 109.678 210.996L104.149 210.405C103.897 210.378 103.705 210.291 103.574 210.143C103.442 209.995 103.359 209.831 103.324 209.653L100.346 196.483L100.339 196.361C100.352 196.242 100.409 196.141 100.512 196.058C100.6 195.987 100.704 195.958 100.823 195.97L104.582 196.372C105.006 196.417 105.28 196.674 105.404 197.144L105.753 198.589L110.605 199.107L111.251 197.768ZM107.323 206.862L109.177 202.877L106.353 202.575L107.323 206.862Z" fill="black"></path> <path d="M86.7256 195.462C86.5853 195.419 86.4796 195.331 86.4086 195.198C86.3376 195.065 86.3234 194.928 86.366 194.788L87.2444 191.899C87.2871 191.758 87.3749 191.653 87.508 191.582C87.6411 191.511 87.7778 191.496 87.9181 191.539L100.203 195.273C100.343 195.316 100.449 195.404 100.52 195.537C100.591 195.67 100.605 195.807 100.563 195.947L99.725 198.703C99.6746 198.869 99.6 198.999 99.5013 199.095C99.4027 199.19 99.3137 199.254 99.2344 199.285L91.5065 202.977L96.9218 204.623C97.0621 204.666 97.1678 204.754 97.2388 204.887C97.3099 205.02 97.3241 205.157 97.2814 205.297L96.403 208.187C96.3604 208.327 96.2725 208.433 96.1394 208.504C96.0064 208.575 95.8697 208.589 95.7293 208.546L84.2481 205.056C84.1078 205.013 84.0021 204.925 83.9311 204.792C83.86 204.659 83.8458 204.523 83.8885 204.382L84.7203 201.646C84.8018 201.378 84.9487 201.193 85.161 201.09L92.8298 197.317L86.7256 195.462Z" fill="black"></path> <path d="M82.8212 189.342C83.1855 189.021 83.5565 188.96 83.9342 189.159L87.2804 190.917C87.3866 190.973 87.4624 191.058 87.5078 191.172C87.5352 191.292 87.521 191.405 87.4652 191.511L87.3917 191.608L77.5872 200.893C77.4593 201.022 77.2995 201.111 77.1076 201.161C76.9158 201.211 76.7077 201.177 76.4835 201.059L71.5617 198.472C71.3374 198.354 71.1914 198.202 71.1236 198.016C71.0557 197.83 71.0386 197.648 71.072 197.469L73.1573 184.128L73.1955 184.013C73.2513 183.906 73.3422 183.834 73.4682 183.794C73.5763 183.761 73.6834 183.772 73.7896 183.828L77.1358 185.586C77.5135 185.785 77.6736 186.125 77.6161 186.607L77.4075 188.079L81.7274 190.349L82.8212 189.342ZM75.8181 196.349L79.0103 193.327L76.4962 192.005L75.8181 196.349Z" fill="black"></path> <path d="M61.5665 174.366C61.5746 174.27 61.6077 174.186 61.6659 174.113C61.7407 174.019 61.8436 173.965 61.9748 173.95C62.0872 173.937 62.1903 173.968 62.2842 174.043L66.3205 177.257C66.5604 177.448 66.6817 177.681 66.6844 177.956L66.7277 183.488L69.2695 180.296C69.3609 180.182 69.4815 180.116 69.6314 180.099C69.7813 180.082 69.9136 180.119 70.0283 180.21L73.2511 182.777C73.3659 182.868 73.4317 182.989 73.4487 183.139C73.4657 183.289 73.4285 183.421 73.3371 183.536L65.2882 193.642C65.1968 193.757 65.0762 193.823 64.9263 193.84C64.7764 193.857 64.6441 193.82 64.5294 193.728L61.3066 191.162C61.1918 191.07 61.126 190.95 61.109 190.8C61.092 190.65 61.1292 190.517 61.2206 190.403L63.563 187.462L58.6241 188.591C58.3264 188.643 58.0629 188.578 57.8334 188.395L54.0631 185.393C53.9692 185.318 53.92 185.219 53.9156 185.096C53.8924 184.976 53.9182 184.868 53.993 184.774C54.0594 184.691 54.1437 184.639 54.2456 184.618L61.5543 183.049L61.5665 174.366Z" fill="black"></path> <path d="M43.1772 172.471C43.0816 172.36 43.0396 172.229 43.051 172.079C43.0624 171.928 43.1238 171.805 43.2351 171.71L53.0371 163.293C53.1483 163.197 53.2792 163.155 53.4296 163.167C53.58 163.178 53.703 163.239 53.7985 163.351L56.4826 166.476C56.5782 166.588 56.6202 166.719 56.6088 166.869C56.5974 167.019 56.536 167.142 56.4247 167.238L53.1928 170.013L55.7987 173.048L59.0306 170.273C59.1419 170.177 59.2728 170.135 59.4232 170.146C59.5736 170.158 59.6966 170.219 59.7921 170.331L62.4762 173.456C62.5718 173.568 62.6189 173.694 62.6175 173.836C62.6061 173.986 62.5397 174.113 62.4183 174.218L52.6163 182.635C52.505 182.73 52.3742 182.772 52.2238 182.761C52.0734 182.75 51.9504 182.688 51.8548 182.577L49.1707 179.451C49.0752 179.34 49.0331 179.209 49.0446 179.059C49.056 178.908 49.1174 178.785 49.2286 178.69L52.3392 176.019L49.7333 172.984L46.6227 175.655C46.5115 175.751 46.3806 175.793 46.2302 175.781C46.0798 175.77 45.9568 175.708 45.8613 175.597L43.1772 172.471Z" fill="black"></path> <path d="M41.6908 159.577C41.0998 158.225 40.7415 157.078 40.6159 156.136C40.4837 155.182 40.5725 154.385 40.8824 153.746C41.1922 153.108 41.7288 152.569 42.4921 152.131C43.3248 151.654 44.2094 151.507 45.1457 151.693C46.0639 151.873 46.9627 152.341 47.8421 153.097C48.71 153.86 49.4922 154.848 50.1888 156.063C50.9651 157.416 51.4542 158.657 51.6561 159.786C51.8581 160.916 51.8142 161.871 51.5245 162.652C51.2231 163.44 50.7371 164.026 50.0663 164.411C49.9506 164.477 49.8382 164.495 49.729 164.466C49.6132 164.425 49.5221 164.346 49.4557 164.23L47.4156 160.674C47.2763 160.431 47.2387 160.191 47.3028 159.955C47.3751 159.652 47.3762 159.359 47.3063 159.077C47.2248 158.801 47.058 158.443 46.8059 158.003C46.1756 156.905 45.6928 156.451 45.3574 156.644C45.2186 156.724 45.1461 156.865 45.1398 157.068C45.1153 157.267 45.1745 157.571 45.3174 157.981C45.4422 158.386 45.6664 158.964 45.9901 159.716C46.714 161.407 47.0174 162.847 46.9003 164.036C46.7716 165.232 46.1521 166.149 45.0418 166.786C44.2554 167.237 43.4254 167.398 42.552 167.268C41.6786 167.139 40.8254 166.737 39.9924 166.062C39.1528 165.376 38.4013 164.454 37.7378 163.297C37.0478 162.095 36.6349 160.933 36.4991 159.812C36.3517 158.697 36.4196 157.744 36.7027 156.951C36.9859 156.158 37.3935 155.609 37.9255 155.304C38.0411 155.238 38.1569 155.225 38.2727 155.266C38.3819 155.296 38.473 155.374 38.546 155.502L40.6856 159.232C40.7984 159.428 40.8318 159.647 40.7859 159.889C40.7432 160.082 40.7369 160.286 40.7671 160.499C40.7972 160.712 40.9151 160.998 41.1208 161.357C41.5653 162.132 41.9494 162.426 42.2733 162.241C42.4468 162.141 42.4993 161.911 42.4309 161.551C42.3509 161.197 42.1042 160.539 41.6908 159.577Z" fill="black"></path> <path d="M28.7834 140.511C28.7356 140.372 28.7447 140.235 28.8108 140.1C28.8769 139.964 28.9792 139.872 29.1179 139.825L32.162 138.775C32.3006 138.727 32.4377 138.736 32.5734 138.802C32.709 138.868 32.8007 138.971 32.8485 139.109L34.2504 143.174L42.9099 140.188C43.0486 140.14 43.1857 140.149 43.3213 140.215C43.4569 140.281 43.5486 140.384 43.5965 140.522L44.9397 144.417C44.9875 144.556 44.9784 144.693 44.9123 144.829C44.8462 144.964 44.7439 145.056 44.6052 145.104L35.9457 148.09L37.3476 152.155C37.3954 152.294 37.3863 152.431 37.3202 152.567C37.2541 152.702 37.1518 152.794 37.0131 152.842L33.9691 153.892C33.8304 153.939 33.6933 153.93 33.5577 153.864C33.422 153.798 33.3303 153.696 33.2825 153.557L28.7834 140.511Z" fill="black"></path> <path d="M40.9561 130.965C41.4296 131.072 41.6968 131.337 41.7577 131.759L42.2978 135.5C42.315 135.619 42.2906 135.73 42.2248 135.834C42.1438 135.927 42.044 135.981 41.9252 135.999L41.8036 135.996L28.5317 133.507C28.3526 133.479 28.1865 133.402 28.0336 133.276C27.8807 133.149 27.7861 132.961 27.7499 132.71L26.9555 127.207C26.9193 126.957 26.9567 126.749 27.0677 126.585C27.1787 126.421 27.3162 126.3 27.4801 126.222L39.5061 120.081L39.622 120.044C39.7407 120.027 39.853 120.058 39.9587 120.137C40.0493 120.205 40.1032 120.298 40.1203 120.417L40.6604 124.158C40.7214 124.58 40.5399 124.909 40.116 125.146L38.8018 125.841L39.499 130.671L40.9561 130.965ZM31.1731 129.407L35.4933 130.218L35.0875 127.407L31.1731 129.407Z" fill="black"></path> <path d="M27.2307 106.362C27.2374 106.215 27.2964 106.091 27.4078 105.99C27.5192 105.888 27.6481 105.84 27.7947 105.847L40.7014 106.433C40.8479 106.439 40.972 106.498 41.0737 106.61C41.1755 106.721 41.223 106.85 41.2163 106.997L41.0704 110.213C41.0559 110.533 40.9039 110.793 40.6145 110.993L34.8626 115.097L40.297 115.344C40.4435 115.35 40.5676 115.409 40.6694 115.521C40.7711 115.632 40.8186 115.761 40.812 115.907L40.6433 119.624C40.6367 119.77 40.5777 119.894 40.4663 119.996C40.3549 120.098 40.2259 120.145 40.0794 120.139L27.1727 119.553C27.0262 119.546 26.9021 119.487 26.8003 119.376C26.6986 119.264 26.6511 119.135 26.6577 118.989L26.8046 115.752C26.8191 115.433 26.9641 115.179 27.2396 114.991L33.451 110.909L27.5771 110.642C27.4305 110.635 27.3064 110.576 27.2047 110.465C27.103 110.354 27.0554 110.225 27.0621 110.078L27.2307 106.362Z" fill="black"></path> </svg> 